# xmcd CD database file
#
# Track frame offsets:
#	150
#	20150
#	38962
#	60825
#	82950
#	102937
#	122125
#	152287
#	165737
#	196350
#
# Disc length: 3134 seconds
#
# Revision: 1
# Processed by: cddbd v1.5PL3 Copyright (c) Steve Scherf et al.
# Submitted via: CDex 1.51
#
DISCID=740c3c0a
DTITLE=Tony Z - Kiss My Blues
DYEAR=1997
DGENRE=Blues
TTITLE0=All Alone
TTITLE1=It's All the Same
TTITLE2=15 Years
TTITLE3=This Tear's for You
TTITLE4=You are My Everything
TTITLE5=You ain't Who You Think You Are
TTITLE6=Voodootize Me, Baby
TTITLE7=Soul Talk
TTITLE8=Communicate
TTITLE9=If You ever Need a Friend
EXTD=YEAR: 1997
EXTT0=
EXTT1=
EXTT2=
EXTT3=
EXTT4=
EXTT5=
EXTT6=
EXTT7=
EXTT8=
EXTT9=
PLAYORDER=
